<?xml version="1.0" encoding="UTF-8" standalone="no"?>
<!-- Created with Inkscape (http://www.inkscape.org/) -->

<svg
   xmlns:dc="http://purl.org/dc/elements/1.1/"
   xmlns:cc="http://creativecommons.org/ns#"
   xmlns:rdf="http://www.w3.org/1999/02/22-rdf-syntax-ns#"
   xmlns:svg="http://www.w3.org/2000/svg"
   xmlns="http://www.w3.org/2000/svg"
   xmlns:sodipodi="http://sodipodi.sourceforge.net/DTD/sodipodi-0.dtd"
   xmlns:inkscape="http://www.inkscape.org/namespaces/inkscape"
   width="372.08841mm"
   height="184.18484mm"
   viewBox="0 0 372.08841 184.18485"
   version="1.1"
   id="svg38"
   inkscape:version="0.92.4 5da689c313, 2019-01-14"
   sodipodi:docname="petl_logo.svg">
  <defs
     id="defs32" />
  <sodipodi:namedview
     id="base"
     pagecolor="#ffffff"
     bordercolor="#666666"
     borderopacity="1.0"
     inkscape:pageopacity="0.0"
     inkscape:pageshadow="2"
     inkscape:zoom="0.35"
     inkscape:cx="232.06529"
     inkscape:cy="306.36078"
     inkscape:document-units="mm"
     inkscape:current-layer="layer1"
     showgrid="false"
     inkscape:window-width="1600"
     inkscape:window-height="835"
     inkscape:window-x="0"
     inkscape:window-y="0"
     inkscape:window-maximized="1" />
  <metadata
     id="metadata35">
    <rdf:RDF>
      <cc:Work
         rdf:about="">
        <dc:format>image/svg+xml</dc:format>
        <dc:type
           rdf:resource="http://purl.org/dc/dcmitype/StillImage" />
        <dc:title />
      </cc:Work>
    </rdf:RDF>
  </metadata>
  <g
     inkscape:label="Laag 1"
     inkscape:groupmode="layer"
     id="layer1"
     transform="translate(27.004774,-45.706456)">
    <g
       id="g827">
      <path
         d="m 17.78928,47.325572 c 2.673631,2.006865 4.633832,4.019108 6.047474,6.18898 0.984602,1.487549 1.204559,2.202848 1.809116,6.036022 0.610052,3.868022 0.631918,4.685992 0.14546,7.262683 -0.286379,1.580863 -1.378217,5.074452 -2.392877,7.698736 -6.537462,16.745161 -8.516857,30.235757 -6.60286,44.862277 0.96156,7.4554 1.99153,11.72146 4.323352,17.67505 4.834136,12.30885 15.66535,25.27896 27.040443,32.41338 4.793569,2.99393 8.157008,3.71344 10.935767,2.31091 4.794511,-2.43473 11.399783,-8.33358 15.490575,-13.87156 3.709225,-5.01353 5.916286,-9.36157 7.606373,-14.94949 2.847997,-9.34191 3.205011,-16.36242 1.378477,-27.71707 C 80.630236,96.592328 71.692341,80.002207 57.836801,67.330502 51.202424,61.269801 42.603749,55.661758 34.030448,51.799692 30.263696,50.108087 16.905594,45.572111 16.034418,45.70951 c -0.174235,0.02748 0.619762,0.759386 1.754862,1.616062 z"
         id="path3905"
         inkscape:connector-curvature="0"
         style="fill:#556b2f;fill-opacity:1;stroke:none;stroke-width:0.03527778" />
      <path
         d="m -25.90916,141.8123 c 7.07795,2.39959 9.64662,6.93211 9.253731,16.38767 -0.591098,15.10005 3.428929,28.40677 11.5710167,38.32608 4.19795071,5.15064 11.2403623,10.14453 18.1296603,12.86822 6.502654,2.58311 11.162995,3.08013 13.220154,1.45905 1.591455,-1.2432 5.524177,-7.82811 6.60071,-10.9838 2.35049,-6.96062 2.528652,-10.30131 1.056681,-17.88562 -0.981316,-5.05622 -1.361811,-6.27607 -2.545098,-8.66974 -3.323964,-6.75771 -6.76207,-11.69646 -11.632489,-16.60878 -3.446304,-3.49972 -11.4620454,-8.87967 -16.2103367,-10.94081 -7.6336506,-3.22608 -17.0396593,-5.03009 -25.5161933,-4.82239 -5.577281,0.1481 -5.888965,0.20859 -3.927836,0.87012 z"
         id="path3907"
         inkscape:connector-curvature="0"
         style="fill:#556b2f;fill-opacity:1;stroke:none;stroke-width:0.03527778" />
      <path
         d="m 93.610638,173.01918 c -8.003518,-0.26013 -15.339958,0.62799 -22.58348,2.67603 -11.076961,3.16197 -19.445214,8.95669 -25.75427,17.84819 -2.667431,3.77584 -4.992605,8.28821 -5.873815,11.43169 -0.457993,1.67615 -0.446338,2.25031 0.08162,4.01914 0.736811,2.44737 2.065084,3.92033 6.826964,7.5388 16.91889,12.86759 37.403578,16.56559 58.577393,10.54332 10.10264,-2.89509 17.491,-6.45684 28.56171,-13.87575 5.63684,-3.78195 11.27391,-5.41804 15.86729,-4.65298 2.2271,0.37094 5.31846,1.77992 7.68489,3.46156 1.02081,0.74225 1.92562,1.32211 2.0068,1.2641 0.24357,-0.174 -4.07784,-6.65173 -6.72863,-10.06164 -4.84337,-6.35008 -9.80836,-11.11105 -16.51904,-15.91243 -7.26169,-5.14351 -13.90261,-8.43119 -22.30076,-11.04594 -4.52965,-1.36243 -14.905368,-3.05482 -19.846681,-3.23405 z"
         id="path3909"
         inkscape:connector-curvature="0"
         style="fill:#556b2f;fill-opacity:1;stroke:none;stroke-width:0.03527778" />
    </g>
    <text
       xml:space="preserve"
       style="font-style:normal;font-variant:normal;font-weight:normal;font-stretch:normal;font-size:105.83333588px;line-height:1.25;font-family:'Emblema One';-inkscape-font-specification:'Emblema One';letter-spacing:0px;word-spacing:0px;fill:#556b2f;fill-opacity:1;stroke:none;stroke-width:0.26458332"
       x="101.42926"
       y="135.21867"
       id="text126"><tspan
         sodipodi:role="line"
         id="tspan124"
         x="101.42926"
         y="135.21867"
         style="font-style:normal;font-variant:normal;font-weight:normal;font-stretch:normal;font-size:105.83333588px;font-family:'Emblema One';-inkscape-font-specification:'Emblema One';fill:#556b2f;fill-opacity:1;stroke-width:0.26458332">petl</tspan></text>
  </g>
</svg>
